<svg width="400" height="400" viewBox="0 0 400 400" fill="none" xmlns="http://www.w3.org/2000/svg">
<path d="M199.231 227.309C214.156 227.309 226.255 215.21 226.255 200.285C226.255 185.36 214.156 173.26 199.231 173.26C184.306 173.26 172.207 185.36 172.207 200.285C172.207 215.21 184.306 227.309 199.231 227.309Z" fill="#00D8FF"/>
<path d="M199.231 262.193C161.278 262.193 128.117 257.725 103.3 249.219C87.2035 243.728 73.5298 236.407 63.786 228.063C53.45 219.234 47.959 209.598 47.959 200.285C47.959 182.412 67.5543 164.916 100.446 153.504C127.363 144.137 162.462 138.915 199.177 138.915C235.245 138.915 269.86 143.975 296.615 153.234C312.281 158.618 325.47 165.616 334.837 173.368C345.011 181.874 350.395 191.187 350.395 200.285C350.395 218.857 328.484 237.645 293.17 249.327C268.191 257.617 234.814 262.193 199.231 262.193ZM199.231 151.835C164.4 151.835 129.947 156.895 104.753 165.67C74.4988 176.221 60.9328 190.649 60.9328 200.285C60.9328 210.298 75.5217 226.071 107.499 236.999C130.97 245.02 162.732 249.273 199.231 249.273C233.469 249.273 265.392 244.966 289.132 237.053C322.347 226.017 337.529 210.244 337.529 200.285C337.529 195.171 333.652 189.141 326.6 183.273C318.471 176.49 306.628 170.3 292.47 165.401C267.007 156.68 233.899 151.835 199.231 151.835Z" fill="#00D8FF"/>
<path d="M137.915 334.976C132.424 334.976 127.579 333.791 123.487 331.423C108.037 322.486 102.654 296.754 109.168 262.57C114.497 234.523 127.525 201.577 145.882 169.761C163.916 138.538 185.557 111.083 206.929 92.5103C219.418 81.636 232.069 73.6686 243.482 69.4696C255.917 64.8938 266.684 64.8938 274.544 69.4158C290.64 78.6751 295.969 107.099 288.433 143.49C283.103 169.33 270.399 200.5 252.634 231.346C233.684 264.185 213.228 290.671 193.471 307.951C180.658 319.149 167.469 327.331 155.411 331.584C149.112 333.845 143.19 334.976 137.915 334.976ZM151.427 172.991L157.026 176.221C139.637 206.368 126.771 238.722 121.819 264.992C115.843 296.485 121.603 315.434 129.894 320.225C131.939 321.41 134.631 322.056 137.915 322.056C148.628 322.056 165.477 315.273 184.965 298.261C203.645 281.95 223.187 256.54 241.436 224.94C258.555 195.278 270.722 165.454 275.782 140.96C282.834 106.668 276.751 85.6735 268.084 80.667C263.669 78.1368 256.51 78.4598 247.896 81.636C237.937 85.2966 226.686 92.4565 215.381 102.308C195.086 119.965 174.36 146.236 157.026 176.275L151.427 172.991Z" fill="#00D8FF"/>
<path d="M260.547 335.137C245.904 335.137 227.332 326.309 207.952 309.62C186.311 290.994 164.293 263.27 145.882 231.454C127.794 200.231 114.874 167.769 109.437 139.937C106.26 123.68 105.668 108.768 107.714 96.7632C109.975 83.6817 115.304 74.3685 123.218 69.7927C139.26 60.4795 166.554 70.0618 194.332 94.7713C214.035 112.267 234.707 138.861 252.526 169.653C271.529 202.492 284.287 233.446 289.348 259.178C292.631 275.867 293.17 291.371 290.855 303.968C288.379 317.372 282.78 326.901 274.705 331.584C270.667 333.953 265.876 335.137 260.547 335.137ZM157.079 224.994C174.521 255.141 196.162 282.434 216.403 299.823C240.682 320.71 259.955 325.232 268.299 320.387C276.966 315.38 283.318 294.87 276.751 261.709C271.906 237.376 259.685 207.767 241.382 176.167C224.209 146.505 204.452 121.042 185.772 104.461C159.609 81.2053 138.399 75.9835 129.732 80.99C125.317 83.5202 122.034 89.9263 120.472 98.9703C118.696 109.414 119.234 122.765 122.141 137.461C127.309 163.893 139.691 194.955 157.079 224.994Z" fill="#00D8FF"/>
</svg>
