<svg width="400" height="400" viewBox="0 0 400 400" fill="none" xmlns="http://www.w3.org/2000/svg">
<g clip-path="url(#clip0_217_32)">
<path d="M96.7587 55.7126H303.241C334.546 55.7126 359.857 79.2251 359.857 108.306V292.694C359.857 321.775 334.546 345.288 303.241 345.288H96.7587C65.4533 345.288 40.1426 321.775 40.1426 292.694V108.306C40.1426 79.2251 65.4533 55.7126 96.7587 55.7126Z" fill="#470137"/>
<path d="M208.259 131.819L168.295 193.075L210.923 258.044C211.19 258.539 211.323 259.034 211.19 259.529C211.057 260.024 210.524 259.653 209.724 259.776H179.218C177.087 259.776 175.622 259.653 174.689 258.415C171.892 253.218 168.961 248.144 166.163 242.946C163.366 237.873 160.302 232.675 157.105 227.354C153.908 222.033 150.71 216.711 147.513 211.266H147.247C144.449 216.588 141.385 221.909 138.322 227.23C135.258 232.551 132.194 237.873 129.263 243.07C126.199 248.268 123.135 253.589 120.071 258.663C119.538 259.9 118.473 260.024 117.007 260.024H87.7001C87.1672 260.024 86.7676 260.271 86.7676 259.653C86.6344 259.158 86.7676 258.663 87.034 258.291L128.464 195.179L88.0997 131.695C87.7001 131.2 87.5669 130.705 87.8333 130.458C88.0997 130.086 88.6326 129.963 89.1654 129.963H119.405C120.071 129.963 120.737 130.086 121.27 130.21C121.803 130.458 122.203 130.829 122.602 131.324C125.133 136.645 128.064 141.966 131.128 147.288C134.325 152.609 137.389 157.806 140.719 163.004C143.917 168.201 146.847 173.399 149.645 178.72H149.911C152.709 173.275 155.639 167.954 158.57 162.756C161.501 157.559 164.565 152.361 167.629 147.164C170.693 141.966 173.623 136.645 176.554 131.571C176.687 131.076 176.954 130.581 177.353 130.334C177.886 130.086 178.419 129.963 179.085 130.086H207.193C207.859 129.963 208.525 130.334 208.659 130.953C208.792 131.076 208.525 131.571 208.259 131.819Z" fill="#FF61F6"/>
<path d="M269.804 262.375C259.946 262.499 250.088 260.643 241.163 256.806C232.77 253.218 225.843 247.278 221.048 239.976C216.119 232.428 213.721 223.023 213.721 211.761C213.588 202.604 216.119 193.57 221.048 185.65C226.11 177.606 233.437 170.924 242.229 166.469C251.554 161.643 262.744 159.291 275.932 159.291C276.598 159.291 277.53 159.291 278.729 159.415C279.928 159.539 281.26 159.539 282.859 159.663V120.558C282.859 119.691 283.259 119.196 284.191 119.196H311.234C311.9 119.073 312.433 119.568 312.566 120.063V238.12C312.566 240.348 312.699 242.823 312.832 245.545C313.099 248.144 313.232 250.619 313.365 252.723C313.365 253.589 312.965 254.331 312.033 254.703C305.106 257.425 297.779 259.405 290.319 260.643C283.525 261.756 276.731 262.375 269.804 262.375ZM282.859 237.625V183.175C281.66 182.928 280.461 182.68 279.262 182.556C277.797 182.433 276.332 182.309 274.866 182.309C269.671 182.309 264.475 183.299 259.813 185.526C255.284 187.63 251.42 190.724 248.49 194.684C245.559 198.644 244.094 203.965 244.094 210.4C243.96 214.731 244.76 219.063 246.358 223.146C247.69 226.488 249.689 229.458 252.353 231.933C254.884 234.16 257.948 235.893 261.412 236.883C265.008 237.996 268.738 238.491 272.468 238.491C274.467 238.491 276.332 238.368 278.063 238.244C279.795 238.368 281.26 238.12 282.859 237.625Z" fill="#FF61F6"/>
</g>
<defs>
<clipPath id="clip0_217_32">
<rect width="400" height="400" fill="white"/>
</clipPath>
</defs>
</svg>
