<svg width="400" height="400" viewBox="0 0 400 400" fill="none" xmlns="http://www.w3.org/2000/svg">
<g clip-path="url(#clip0_217_34)">
<path d="M96.0208 56H303.979C335.508 56 361 79.4658 361 108.489V292.511C361 321.534 335.508 345 303.979 345H96.0208C64.4917 345 39 321.534 39 292.511V108.489C39 79.4658 64.4917 56 96.0208 56Z" fill="#330000"/>
<path d="M195.036 229.4H145.126L134.929 258.423C134.661 259.535 133.587 260.276 132.38 260.153H107.157C105.681 260.153 105.278 259.412 105.681 257.929L148.882 143.441C149.285 142.206 149.687 140.847 150.224 139.365C150.761 136.772 151.029 134.055 151.029 131.338C150.895 130.72 151.432 130.103 152.102 129.979C152.237 129.979 152.371 129.979 152.505 129.979H186.852C187.925 129.979 188.462 130.35 188.596 130.967L237.567 258.176C237.969 259.535 237.567 260.153 236.225 260.153H208.184C207.245 260.276 206.306 259.659 206.037 258.794L195.036 229.4ZM152.907 204.329H186.986C186.181 201.735 185.107 198.647 183.9 195.436C182.692 192.102 181.485 188.52 180.277 184.815C178.936 180.986 177.728 177.281 176.387 173.453C175.045 169.624 173.837 166.042 172.764 162.461C171.691 159.003 170.752 155.791 169.812 152.827H169.544C168.337 158.138 166.861 163.449 164.982 168.759C162.97 174.688 160.957 180.863 158.811 187.038C156.932 193.337 154.92 199.141 152.907 204.329Z" fill="#FF9A00"/>
<path d="M266.815 151.098C262.387 151.222 258.094 149.616 254.874 146.776C251.788 143.688 250.178 139.612 250.312 135.413C250.178 131.214 251.922 127.262 255.142 124.421C258.362 121.581 262.656 120.099 267.083 120.099C272.316 120.099 276.341 121.581 279.292 124.421C282.244 127.385 283.854 131.338 283.72 135.413C283.854 139.612 282.244 143.688 279.024 146.776C275.938 149.74 271.377 151.345 266.815 151.098ZM251.788 258.3V163.202C251.788 161.967 252.325 161.473 253.532 161.473H280.097C281.305 161.473 281.842 162.09 281.842 163.202V258.3C281.842 259.659 281.305 260.276 280.097 260.276H253.801C252.459 260.276 251.788 259.535 251.788 258.3Z" fill="#FF9A00"/>
</g>
<defs>
<clipPath id="clip0_217_34">
<rect width="322" height="289" fill="white" transform="translate(39 56)"/>
</clipPath>
</defs>
</svg>
