<svg width="400" height="400" viewBox="0 0 400 400" fill="none" xmlns="http://www.w3.org/2000/svg">
<g clip-path="url(#clip0_217_31)">
<path d="M150.76 345C177.664 345 199.5 323.421 199.5 296.833V248.667H150.76C123.855 248.667 102.02 270.245 102.02 296.833C102.02 323.421 123.855 345 150.76 345Z" fill="#0ACF83"/>
<path d="M102.02 200.5C102.02 173.912 123.855 152.333 150.76 152.333H199.5V248.667H150.76C123.855 248.667 102.02 227.088 102.02 200.5Z" fill="#A259FF"/>
<path d="M102.02 104.167C102.02 77.5787 123.855 56 150.76 56H199.5V152.333H150.76C123.855 152.333 102.02 130.755 102.02 104.167Z" fill="#F24E1E"/>
<path d="M199.5 56H248.24C275.145 56 296.98 77.5787 296.98 104.167C296.98 130.755 275.145 152.333 248.24 152.333H199.5V56Z" fill="#FF7262"/>
<path d="M296.98 200.5C296.98 227.088 275.145 248.667 248.24 248.667C221.336 248.667 199.5 227.088 199.5 200.5C199.5 173.912 221.336 152.333 248.24 152.333C275.145 152.333 296.98 173.912 296.98 200.5Z" fill="#1ABCFE"/>
</g>
<defs>
<clipPath id="clip0_217_31">
<rect width="195" height="289" fill="white" transform="translate(102 56)"/>
</clipPath>
</defs>
</svg>
