<svg width="400" height="400" viewBox="0 0 400 400" fill="none" xmlns="http://www.w3.org/2000/svg">
<g clip-path="url(#clip0_217_35)">
<path d="M96.0208 56H303.979C335.508 56 361 79.4658 361 108.489V292.511C361 321.534 335.508 345 303.979 345H96.0208C64.4917 345 39 321.534 39 292.511V108.489C39 79.4658 64.4917 56 96.0208 56Z" fill="#001E36"/>
<path d="M111.45 258.671V131.585C111.45 130.72 111.853 130.226 112.792 130.226C115.073 130.226 117.219 130.226 120.305 130.103C123.525 129.979 126.879 129.979 130.502 129.856C134.124 129.732 138.015 129.732 142.174 129.609C146.334 129.485 150.359 129.485 154.384 129.485C165.385 129.485 174.509 130.72 182.022 133.314C188.73 135.413 194.902 138.871 200 143.441C204.294 147.393 207.648 152.21 209.794 157.521C211.807 162.708 212.88 168.018 212.88 173.576C212.88 184.197 210.197 192.966 204.83 199.882C199.464 206.799 191.95 211.986 183.229 214.95C174.106 218.038 164.044 219.149 153.042 219.149C149.822 219.149 147.675 219.149 146.334 219.026C144.992 218.902 143.114 218.902 140.564 218.902V258.547C140.699 259.412 140.028 260.153 139.089 260.276C138.954 260.276 138.82 260.276 138.552 260.276H113.06C111.987 260.276 111.45 259.782 111.45 258.671ZM140.699 154.062V195.56C142.577 195.683 144.321 195.807 145.931 195.807H153.042C158.274 195.807 163.507 195.066 168.471 193.584C172.764 192.472 176.521 190.126 179.473 187.038C182.29 183.95 183.632 179.751 183.632 174.317C183.766 170.488 182.693 166.66 180.546 163.325C178.265 160.114 175.045 157.644 171.154 156.285C166.19 154.433 160.824 153.692 155.323 153.815C151.834 153.815 148.749 153.815 146.199 153.939C143.516 153.815 141.638 153.939 140.699 154.062Z" fill="#31A8FF"/>
<path d="M296.6 188.026C292.575 186.05 288.282 184.691 283.72 183.827C278.756 182.839 273.792 182.221 268.693 182.221C266.01 182.098 263.193 182.468 260.643 183.086C258.899 183.456 257.423 184.321 256.484 185.556C255.813 186.544 255.411 187.779 255.411 188.891C255.411 190.002 255.948 191.114 256.753 192.102C257.96 193.46 259.57 194.572 261.314 195.436C264.4 196.918 267.62 198.277 270.84 199.512C278.085 201.735 285.062 204.823 291.502 208.528C295.929 211.121 299.552 214.58 302.101 218.779C304.248 222.731 305.321 227.053 305.187 231.5C305.321 237.304 303.443 243.109 299.954 247.926C296.198 252.866 290.965 256.694 284.928 258.918C278.353 261.511 270.303 262.87 260.643 262.87C254.472 262.87 248.434 262.376 242.397 261.264C237.701 260.523 233.005 259.165 228.712 257.312C227.772 256.818 227.102 255.953 227.236 254.965V233.476C227.236 233.105 227.37 232.611 227.773 232.364C228.175 232.117 228.578 232.241 228.98 232.488C234.213 235.328 239.713 237.304 245.617 238.539C250.715 239.774 256.082 240.392 261.448 240.392C266.547 240.392 270.169 239.774 272.584 238.663C274.731 237.798 276.207 235.699 276.207 233.476C276.207 231.747 275.133 230.141 272.987 228.535C270.84 226.93 266.413 225.077 259.838 222.731C252.996 220.508 246.69 217.544 240.787 213.838C236.628 211.121 233.139 207.54 230.59 203.341C228.443 199.388 227.37 195.066 227.504 190.743C227.504 185.433 229.114 180.369 232.066 175.799C235.42 170.859 240.384 166.907 246.153 164.437C252.459 161.473 260.375 160.114 269.901 160.114C275.402 160.114 281.037 160.485 286.538 161.226C290.563 161.72 294.453 162.708 298.076 164.066C298.613 164.19 299.149 164.684 299.418 165.178C299.552 165.672 299.686 166.166 299.686 166.66V186.791C299.686 187.285 299.418 187.779 299.015 188.026C297.808 188.273 297.137 188.273 296.6 188.026Z" fill="#31A8FF"/>
</g>
<defs>
<clipPath id="clip0_217_35">
<rect width="322" height="289" fill="white" transform="translate(39 56)"/>
</clipPath>
</defs>
</svg>
