<svg width="32" height="32" viewBox="0 0 32 32" fill="none" xmlns="http://www.w3.org/2000/svg">
<g clip-path="url(#clip0_2213_17)">
<path d="M14.9984 30.5618C14.6217 30.1851 14.4245 29.7057 14.4067 29.1236C14.3902 28.5415 14.5704 28.0621 14.947 27.6854L25.0144 17.618H2.05457C1.47245 17.618 0.984142 17.4207 0.589663 17.0263C0.196555 16.6331 0 16.1455 0 15.5634C0 14.9813 0.196555 14.493 0.589663 14.0985C0.984142 13.7054 1.47245 13.5088 2.05457 13.5088H25.0144L14.947 3.44141C14.5704 3.06474 14.3902 2.58534 14.4067 2.00321C14.4245 1.42108 14.6217 0.941679 14.9984 0.565007C15.3751 0.188335 15.8545 0 16.4366 0C17.0187 0 17.4981 0.188335 17.8748 0.565007L31.435 14.1252C31.6404 14.2964 31.7863 14.5101 31.8726 14.7662C31.9575 15.0237 32 15.2895 32 15.5634C32 15.8373 31.9575 16.0942 31.8726 16.3339C31.7863 16.5736 31.6404 16.7961 31.435 17.0016L17.8748 30.5618C17.4981 30.9385 17.0187 31.1268 16.4366 31.1268C15.8545 31.1268 15.3751 30.9385 14.9984 30.5618Z" fill="#BEBEBE"/>
</g>
<defs>
<clipPath id="clip0_2213_17">
<rect width="32" height="31.13" fill="white"/>
</clipPath>
</defs>
</svg>
